<?xml version="1.0" encoding="utf-8"?>
<!-- Generator: Adobe Illustrator 21.0.2, SVG Export Plug-In . SVG Version: 6.00 Build 0)  -->
<svg version="1.1" id="Слой_2" xmlns="http://www.w3.org/2000/svg" xmlns:xlink="http://www.w3.org/1999/xlink" x="0px" y="0px"
	 viewBox="0 0 120 320" style="enable-background:new 0 0 120 320;" xml:space="preserve">
<style type="text/css">
	.st0{fill:#201600;}
	.st1{fill:url(#SVGID_1_);}
</style>
<g id="documents_1_">
	<path class="st0" d="M14,185h-1v-3H2v13h5v3h11v-9L14,185z M4,193v-9h7v1H7v8H4z M16,196H9v-9h2v5l0,0h5V196z M13,190v-3l3,3H13z" />
</g>
<g id="order-menu">
	<polygon class="st0" points="2,6.3 2,17 18,17 18,6.3 10,11.3 	" />
	<polygon class="st0" points="2,3 2,4 10,9 18,4 18,3 	" />
</g>
<g id="coin-menu">
	<ellipse class="st0" cx="50" cy="6" rx="8" ry="4" />
	<path class="st0" d="M50,16c-3.7,0-6.8-1.3-7.7-3c-0.2,0.3-0.3,0.7-0.3,1c0,2.2,3.6,4,8,4s8-1.8,8-4c0-0.3-0.1-0.7-0.3-1
		C56.8,14.7,53.7,16,50,16z" />
	<path class="st0" d="M50,12c-3.7,0-6.8-1.3-7.7-3C42.1,9.3,42,9.7,42,10c0,2.2,3.6,4,8,4s8-1.8,8-4c0-0.3-0.1-0.7-0.3-1
		C56.8,10.7,53.7,12,50,12z" />
</g>
<g id="consultant-menu">
	<path class="st0" d="M77.1,14.6L73,13l-3,3l-3-3l-4.1,1.6C62.4,14.9,62,15.4,62,16v2h16v-2C78,15.4,77.6,14.9,77.1,14.6z" />
	<path class="st0" d="M65,10V7c0-2.2,1.8-4,4-4h2c2.2,0,4,1.8,4,4v1.2c0,0.9-0.6,1.6-1.4,1.8c0.2-0.7,0.3-1.5,0.4-2.3
		C73.9,4.9,72.2,4,70,4s-3.9,1-4,3.7c0.2,2.7,1.2,5.3,4,5.3c1.6,0,2.6-0.8,3.2-2H71v0.2c0,0.4-0.4,0.8-0.8,0.8h-0.4
		c-0.4,0-0.8-0.4-0.8-0.8v-0.4c0-0.4,0.4-0.8,0.8-0.8H70h0.2h3.4c-0.1,0.4-0.2,0.7-0.4,1c1.6,0,2.8-1.3,2.8-2.8V7l0,0
		c0-2.8-2.2-5-5-5h-2c-2.4,0-4.4,1.7-4.9,4H64c-0.6,0-1,0.4-1,1v1C63,9.1,63.9,10,65,10z" />
</g>
<g id="history">
	<path class="st0" d="M10,22c-4.4,0-8,3.6-8,8s3.6,8,8,8s8-3.6,8-8S14.4,22,10,22z M10,36c-3.3,0-6-2.7-6-6s2.7-6,6-6s6,2.7,6,6
		S13.3,36,10,36z" />
	<polygon class="st0" points="11,26 9,26 9,31 13,31 13,29 11,29 	" />
</g>
<g id="list-menu_1_">
	<path class="st0" d="M31,3c0-0.5-0.5-1-1-1h-7v16h14V8h-6V3z M26,16c-0.6,0-1-0.4-1-1s0.4-1,1-1s1,0.4,1,1S26.6,16,26,16z M26,12
		c-0.6,0-1-0.4-1-1s0.4-1,1-1s1,0.4,1,1S26.6,12,26,12z M26,8c-0.6,0-1-0.4-1-1s0.4-1,1-1s1,0.4,1,1S26.6,8,26,8z M35,16h-6v-2h6V16
		z M35,10v2h-6v-2H35z" />
	<polygon class="st0" points="33,2 33,6 37,6 	" />
</g>
<g id="tariff-big">
	<path class="st0" d="M30,22l-8,8l8,8l8-8v-8H30z M36,29l-6,6l-5-5l6-6h5V29z" />
	<circle class="st0" cx="33" cy="27" r="1" />
</g>
<g id="exit">
	<polygon class="st0" points="48,36 44,36 44,24 48,24 48,27 50,27 50,22 42,22 42,38 50,38 50,33 48,33 	" />
	<polygon class="st0" points="53.5,25.5 52,27 54,29 46,29 46,31 54,31 52,33 53.5,34.5 58,30 	" />
</g>
<g id="tariff-mini_1_">
	<path class="st0" d="M91,25l-6,6l4,4l6-6v-4H91z M92,29c-0.6,0-1-0.4-1-1s0.4-1,1-1s1,0.4,1,1S92.6,29,92,29z" />
</g>
<g id="calendar">
	<rect x="105" y="30" class="st0" width="10" height="5" />
	<rect x="107" y="25" class="st0" width="1" height="2" />
	<polygon class="st0" points="113,26 113,25 112,25 112,26 112,27 113,27 	" />
	<polygon class="st0" points="114,26 114,27 114,28 113,28 112,28 111,28 111,27 111,26 109,26 109,27 109,28 108,28 107,28 106,28
		106,27 106,26 105,26 105,29 115,29 115,26 	" />
</g>
<g id="monitoring-mini">
	<path class="st0" d="M113,146.1c-0.8-0.6-1.9-1-3-1c-2.4,0-4.4,1.7-4.9,4h2.1c0.4-1.2,1.5-2,2.8-2c0.6,0,1.1,0.2,1.6,0.4l-1.6,1.6
		h4v-4L113,146.1z" />
	<path class="st0" d="M110,155.1c2.4,0,4.4-1.7,4.9-4h-2.1c-0.4,1.2-1.5,2-2.8,2c-0.6,0-1.1-0.2-1.6-0.4l1.6-1.6h-4v4l1-1
		C107.8,154.7,108.9,155.1,110,155.1z" />
</g>
<g id="list">
	<rect x="2" y="43" class="st0" width="2" height="2" />
	<rect x="2" y="47" class="st0" width="2" height="2" />
	<rect x="2" y="51" class="st0" width="2" height="2" />
	<rect x="2" y="55" class="st0" width="2" height="2" />
	<rect x="6" y="43" class="st0" width="12" height="2" />
	<rect x="6" y="47" class="st0" width="12" height="2" />
	<rect x="6" y="51" class="st0" width="12" height="2" />
	<rect x="6" y="55" class="st0" width="12" height="2" />
</g>
<g id="info">
	<rect x="49" y="42" class="st0" width="2" height="2" />
	<polygon class="st0" points="53,54 51,52 51,46 47,46 49,48 49,54 	" />
	<polygon class="st0" points="53,42 53,44 56,44 56,56 44,56 44,44 47,44 47,42 42,42 42,58 58,58 58,42 	" />
</g>
<g id="target">
	<rect x="9" y="82" class="st0" width="2" height="5" />
	<rect x="9" y="93" class="st0" width="2" height="5" />
	<polygon class="st0" points="17.9,89 15.9,89 13,89 13,91 15.9,91 17.9,91 18,91 18,89 	" />
	<path class="st0" d="M15.2,87h2.2c-0.8-2-2.4-3.6-4.4-4.4v2.2C13.9,85.3,14.7,86.1,15.2,87z" />
	<path class="st0" d="M2.6,87h2.2c0.5-0.9,1.3-1.7,2.2-2.2v-2.2C5,83.4,3.4,85,2.6,87z" />
	<path class="st0" d="M13,95.2v2.2c2-0.8,3.6-2.4,4.4-4.4h-2.2C14.7,93.9,13.9,94.7,13,95.2z" />
	<polygon class="st0" points="2.1,89 2,89 2,91 2.1,91 4.1,91 7,91 7,89 4.1,89 	" />
	<path class="st0" d="M4.8,93H2.6C3.4,95,5,96.6,7,97.4v-2.2C6.1,94.7,5.3,93.9,4.8,93z" />
	<path class="st0" d="M10,91L10,91c0.6,0,1-0.4,1-1l0,0c0-0.6-0.4-1-1-1l0,0c-0.6,0-1,0.4-1,1l0,0C9,90.6,9.4,91,10,91z" />
</g>
<g id="filter">
	<polygon class="st0" points="26,84 26,83 24,83 24,84 22,84 22,86 24,86 24,87 26,87 26,86 38,86 38,84 	" />
	<polygon class="st0" points="36,93 34,93 34,94 22,94 22,96 34,96 34,97 36,97 36,96 38,96 38,94 36,94 	" />
	<polygon class="st0" points="31,88 29,88 29,89 22,89 22,91 29,91 29,92 31,92 31,91 38,91 38,89 31,89 	" />
</g>
<g id="study">
	<path class="st0" d="M14,70c0-2.2-1.8-4-4-4s-4,1.8-4,4s1.8,4,4,4c0.7,0,1.4-0.2,2-0.5l4.5,4.5l1.5-1.5L13.5,72
		C13.8,71.4,14,70.7,14,70z M10,72c-1.1,0-2-0.9-2-2s0.9-2,2-2s2,0.9,2,2S11.1,72,10,72z" />
	<polygon class="st0" points="2,62 2,78 13,78 11,76 4,76 4,64 16,64 16,71 18,73 18,62 	" />
</g>
<g id="earth_2_">
	<path class="st0" d="M30,62c-4.4,0-8,3.6-8,8s3.6,8,8,8s8-3.6,8-8S34.4,62,30,62z M30,76c-1.1,0-2.1-0.3-3-0.8V75v-1l1-1v-1l-1-1
		h-1l-1-1h-1l0.9,1v2.2c-0.6-0.9-0.9-2-0.9-3.2l0,0l0,0c0-0.3,0-0.6,0.1-1H25l1-1v-1l1-1v-1.2c0.9-0.5,1.9-0.8,3-0.8
		c0.7,0,1.4,0.1,2,0.3V65h-1v1h-1v1h4v2h1v1h1C36,73.3,33.3,76,30,76z" />
	<polygon class="st0" points="33,69 33,68 29,68 29,70 30,71 30,72 31,72 31,74 32,74 33,73 34,72 34,69 	" />
</g>
<g id="documet-unload">
	<polygon class="st0" points="48,75 51,72 48,69 48,71 42,71 42,73 48,73 	" />
	<path class="st0" d="M54,62H44v7h2v-5h5v5h5v7H46v-1h-2v3h14V66L54,62z M53,67v-3l3,3H53z" />
</g>
<g id="chain">
	<path class="st0" d="M66.9,75.1c-0.4,0.4-1,0.4-1.4,0l-0.6-0.6c-0.4-0.4-0.4-1,0-1.4l4.2-4.2c0.4-0.4,1-0.4,1.4,0l0.3,0.3l1.5-1.5
		l-1.1-1.1c-0.8-0.8-2-0.8-2.8,0l-5.8,5.8c-0.8,0.8-0.8,2,0,2.8l2.2,2.2c0.8,0.8,2,0.8,2.8,0l1.3-1.3l-1.4-1.5L66.9,75.1z" />
	<path class="st0" d="M73.1,64.9c0.4-0.4,1-0.4,1.4,0l0.6,0.6c0.4,0.4,0.4,1,0,1.4l-4.2,4.2c-0.4,0.4-1,0.4-1.4,0l-0.3-0.3l-1.5,1.5
		l1.1,1.1c0.8,0.8,2,0.8,2.8,0l5.8-5.8c0.8-0.8,0.8-2,0-2.8l-2.2-2.2c-0.8-0.8-2-0.8-2.8,0l-1.3,1.3l1.4,1.5L73.1,64.9z" />
</g>
<g id="ok_1_">
	<polygon class="st0" points="115,68 108,75 105,72 105,69 108,72 115,65 	" />
</g>
<g id="cross_1_">
	<polygon class="st0" points="93.5,65 90,68.5 86.5,65 85,66.5 88.5,70 85,73.5 86.5,75 90,71.5 93.5,75 95,73.5 91.5,70 95,66.5
		" />
</g>
<g id="drop_1_">
	<polygon class="st0" points="113.3,51.8 106.5,45 105,46.5 111.8,53.3 110,55 115,55 115,50 	" />
</g>
<g id="rise_1_">
	<polygon class="st0" points="91.8,46.8 85,53.5 86.5,55 93.3,48.3 95,50 95,45 90,45 	" />
</g>
<g id="sort">
	<polygon class="st0" points="78,46 74,42 70,46 73,46 73,54 75,54 75,46 	" />
	<polygon class="st0" points="67,46 65,46 65,54 62,54 66,58 70,54 67,54 	" />
</g>
<g id="sort-up_1_">
	<polygon class="st0" points="94,127 90,123 86,127 	" />
</g>
<g id="sort-down_1_">
	<polygon class="st0" points="86,133 90,137 94,133 	" />
</g>
<g id="scroll-left_1_">
	<polygon class="st0" points="85,110 88,107 87,106 83,110 87,114 88,113 	" />
</g>
<g id="scroll-right_1_">
	<polygon class="st0" points="95,110 92,113 93,114 97,110 93,106 92,107 	" />
</g>
<g id="scroll-up_1_">
	<polygon class="st0" points="110,105 113,108 114,107 110,103 106,107 107,108 	" />
</g>
<g id="scroll-down_1_">
	<polygon class="st0" points="110,115 107,112 106,113 110,117 114,113 113,112 	" />
</g>
<g id="list-star">
	<g>
		<rect x="22" y="43" class="st0" width="2" height="2" />
		<rect x="22" y="47" class="st0" width="2" height="2" />
		<rect x="26" y="43" class="st0" width="12" height="2" />
		<rect x="26" y="47" class="st0" width="12" height="2" />
		<rect x="30" y="51" class="st0" width="8" height="2" />
		<rect x="30" y="55" class="st0" width="8" height="2" />
	</g>
	<polygon class="st0" points="25,50.4 25.9,53.3 29,53.3 26.5,55.1 27.5,58 25,56.2 22.5,58 23.5,55.1 21,53.3 24.1,53.3 	" />
</g>
<g id="lock">
	<path class="st0" d="M15,107v-1c0-2.2-1.8-4-4-4H9c-2.2,0-4,1.8-4,4v1H3v11h14v-11H15z M7,106c0-1.1,0.9-2,2-2h2c1.1,0,2,0.9,2,2v1
		H7V106z M15,116H5v-7h10V116z" />
	<path class="st0" d="M10,111L10,111c-0.6,0-1,0.4-1,1v1c0,0.6,0.4,1,1,1l0,0c0.6,0,1-0.4,1-1v-1C11,111.4,10.5,111,10,111z" />
</g>
<g id="unlock">
	<path class="st0" d="M27,111L27,111c-0.6,0-1,0.4-1,1v1c0,0.6,0.4,1,1,1l0,0c0.6,0,1-0.4,1-1v-1C28,111.4,27.6,111,27,111z" />
	<path class="st0" d="M36,102h-2c-2.2,0-4,1.8-4,4v1H20v11h14v-11h-2v-1c0-1.1,0.9-2,2-2h2c1.1,0,2,0.9,2,2v1h2v-1
		C40,103.8,38.2,102,36,102z M32,116H22v-7h10V116z" />
</g>
<g id="load">
	<polygon class="st0" points="56,112 56,116 44,116 44,112 42,112 42,118 58,118 58,112 	" />
	<polygon class="st0" points="49,106 49,114 51,114 51,106 53,108 54.5,106.5 50,102 45.5,106.5 47,108 	" />
</g>
<g id="save">
	<polygon class="st0" points="77,112 77,116 65,116 65,112 63,112 63,118 79,118 79,112 	" />
	<polygon class="st0" points="75.5,109.5 74,108 72,110 72,102 70,102 70,110 68,108 66.5,109.5 71,114 	" />
</g>
<g id="comment">
	<path class="st0" d="M1,122v12h3v4h0.5H6l5.3-4H17v-12H1z M15,132h-4.5L6,135.4V132H3v-8h12V132z" />
	<circle class="st0" cx="9" cy="128" r="1" />
	<circle class="st0" cx="12" cy="128" r="1" />
	<circle class="st0" cx="6" cy="128" r="1" />
</g>
<g id="range">
	<path class="st0" d="M30,128c1.7,0,3-1.3,3-3s-1.3-3-3-3s-3,1.3-3,3S28.3,128,30,128z M30,124c0.6,0,1,0.4,1,1s-0.4,1-1,1
		s-1-0.4-1-1S29.4,124,30,124z" />
	<path class="st0" d="M25,131c-1.7,0-3,1.3-3,3s1.3,3,3,3s3-1.3,3-3S26.7,131,25,131z M25,135c-0.6,0-1-0.4-1-1s0.4-1,1-1s1,0.4,1,1
		S25.6,135,25,135z" />
	<path class="st0" d="M35,131c-1.7,0-3,1.3-3,3s1.3,3,3,3s3-1.3,3-3S36.7,131,35,131z M35,135c-0.6,0-1-0.4-1-1s0.4-1,1-1s1,0.4,1,1
		S35.6,135,35,135z" />
	<path class="st0" d="M25.1,130c0.2-1.1,0.8-2,1.6-2.8c-0.4-0.6-0.6-1.3-0.7-2c-1.7,1.2-2.9,3.1-3,5.3C23.6,130.2,24.3,130,25.1,130
		C25,130,25.1,130,25.1,130z" />
	<path class="st0" d="M35,130c0.7,0,1.4,0.2,2,0.5c-0.1-2.2-1.3-4.1-3-5.3c0,0.7-0.3,1.4-0.7,2c0.8,0.7,1.4,1.7,1.6,2.7
		C34.9,130,35,130,35,130z" />
	<path class="st0" d="M31.4,135.8c-0.5,0.1-0.9,0.2-1.4,0.2s-1-0.1-1.4-0.2c-0.3,0.7-0.8,1.2-1.4,1.6C28,137.8,29,138,30,138
		s2-0.2,2.9-0.6C32.3,137,31.8,136.4,31.4,135.8z" />
</g>
<g id="folder-closed_1_">
	<path class="st0" d="M51,126l-2-3h-7v14h16v-11H51z M44,125h4l0.7,1H44V125z M56,135H44v-7h12V135z" />
</g>
<g id="folder-open_1_">
	<path class="st0" d="M77,129v-3h-7l-2-3h-7v12v2h16l2-6v-2H77z M63,125h4l2,3h6v1H65l-2,6V125z M75.6,135H65l1.3-4H77L75.6,135z" />
</g>
<g id="link-big">
	<polygon class="st0" points="70,142 70,144 74.5,144 66,152.5 67.5,154 76,145.5 76,150 78,150 78,142 	" />
	<polygon class="st0" points="72,156 64,156 64,148 67,148 69,146 62,146 62,158 74,158 74,151 72,153 	" />
</g>
<g id="link-mini">
	<polygon class="st0" points="92.8,145.8 88,150.5 89.5,152 94.3,147.3 96,149 96,144 91,144 	" />
	<polygon class="st0" points="92,152 92,154 86,154 86,148 88,148 90,146 84,146 84,156 94,156 94,150 	" />
</g>
<g id="plus-mini_1_">
	<polygon class="st0" points="95,89 91,89 91,85 89,85 89,89 85,89 85,91 89,91 89,95 91,95 91,91 95,91 	" />
</g>
<g id="minus-mini_1_">
	<rect x="105" y="89" class="st0" width="10" height="2" />
</g>
<g id="blus-big_1_">
	<polygon class="st0" points="58,89 51,89 51,82 49,82 49,89 42,89 42,91 49,91 49,98 51,98 51,91 58,91 	" />
</g>
<g id="minus-big_1_">
	<rect x="62" y="89" class="st0" width="16" height="2" />
</g>
<g id="rss">
	<path class="st0" d="M82,7v3c5.5,0,8,2.5,8,8h3C93,11.4,88.6,7,82,7z" />
	<path class="st0" d="M82,2v3c7.7,0,13,5.3,13,13h3C98,9.2,90.8,2,82,2z" />
	<circle class="st0" cx="84.5" cy="15.5" r="2.5" />
</g>
<g id="star_1_">
	<polygon class="st0" points="90,183.3 91.4,187.7 96,187.7 92.3,190.3 93.7,194.7 90,192 86.3,194.7 87.7,190.3 84,187.7
		88.6,187.7 	" />
</g>
<g id="monitoring">
	<path class="st0" d="M10,156c-2.2,0-4.1-1.2-5.1-2.9L7,151H2.1H2v5l1.4-1.4c1.4,2.1,3.8,3.4,6.6,3.4c4.1,0,7.4-3.1,7.9-7h-2
		C15.4,153.8,13,156,10,156z" />
	<path class="st0" d="M16.6,145.4c-1.4-2.1-3.8-3.4-6.6-3.4c-4.1,0-7.4,3.1-7.9,7h2c0.5-2.8,2.9-5,5.9-5c2.2,0,4.1,1.2,5.1,2.9
		L13,149h4.9H18v-5L16.6,145.4z" />
</g>
<g id="attention">
	<rect x="29" y="152" class="st0" width="2" height="2" />
	<path class="st0" d="M30,142c-0.3,0-0.7,0-1,0.1v7.9h2v-5.9c2.8,0.5,5,2.9,5,5.9c0,3.3-2.7,6-6,6s-6-2.7-6-6c0-2.2,1.2-4.2,3-5.2
		v-2.2c-2.9,1.2-5,4.1-5,7.4c0,4.4,3.6,8,8,8s8-3.6,8-8S34.4,142,30,142z" />
</g>
<g id="good_1_">
	<path class="st0" d="M55.7,144.3L55.7,144.3L55.7,144.3L49,151l-3-3v3l3,3l6.5-6.5c0.3,0.8,0.5,1.6,0.5,2.5c0,3.3-2.7,6-6,6
		s-6-2.7-6-6s2.7-6,6-6c0.9,0,1.7,0.2,2.5,0.5L54,143c-1.2-0.7-2.5-1-4-1c-4.4,0-8,3.6-8,8s3.6,8,8,8s8-3.6,8-8
		C58,147.8,57.1,145.8,55.7,144.3z" />
</g>
<g id="purse">
	<circle class="st0" cx="53" cy="192" r="1" />
	<path class="st0" d="M56,186v-3c0-0.6-0.4-1-1-1h-1l-11.2,1.8c-0.5,0.1-0.8,0.5-0.8,1V198h16v-12H56z M44,185.7l10-1.7v2H44V185.7z
		 M56,196H44v-8h12V196z" />
</g>
<g id="factory_3_">
	<path class="st0" d="M78,187l-5-5l-11,11l0,0v5h5l0,0L78,187z M73,185l2,2l-1.5,1.5l-2-2L73,185z M64,196v-2l0.5-0.5l0,0l2,2
		L66,196H64z M66,192l4-4l0,0l2,2l-4,4L66,192z" />
</g>
<g id="individual">
	<path class="st0" d="M90,164c-1.7,0-3,1.1-3,3s1.5,4,3,4s3-2,3-4S91.7,164,90,164z" />
	<path class="st0" d="M95.4,173l-3.4-2l-2,2.4l-2-2.4l-3.4,2c-0.5,0.3-0.6,0.7-0.6,1.3v1.7h12v-1.7C96,173.8,95.8,173.3,95.4,173z" />
</g>
<g id="individual-cross">
	<g>
		<path class="st0" d="M8,169c1.5,0,3-2,3-4c0-1.9-1.3-3-3-3s-3,1.1-3,3C5,167,6.5,169,8,169z" />
		<path class="st0" d="M11.3,169.8L10,169l-2,2.4L6,169l-3.4,2c-0.5,0.3-0.6,0.7-0.6,1.3v1.7h7c0-0.3,0-0.7,0.1-1l0,0
			C9.4,171.6,10.2,170.5,11.3,169.8z" />
	</g>
	<path class="st0" d="M14,170c-2.2,0-4,1.8-4,4s1.8,4,4,4s4-1.8,4-4S16.2,170,14,170z M15.3,176l-1.3-1.3l-1.3,1.3l-0.7-0.7l1.3-1.3
		l-1.3-1.3l0.7-0.7l1.3,1.3l1.3-1.3l0.7,0.7l-1.3,1.3l1.3,1.3L15.3,176z" />
</g>
<g id="individual-question">
	<g>
		<path class="st0" d="M28,169c1.5,0,3-2,3-4c0-1.9-1.3-3-3-3s-3,1.1-3,3C25,167,26.5,169,28,169z" />
		<path class="st0" d="M31.3,169.8L30,169l-2,2.4l-2-2.4l-3.4,2c-0.5,0.3-0.6,0.7-0.6,1.3v1.7h7c0-0.3,0-0.7,0.1-1l0,0
			C29.4,171.6,30.2,170.5,31.3,169.8z" />
	</g>
	<path class="st0" d="M34,170c-2.2,0-4,1.8-4,4s1.8,4,4,4s4-1.8,4-4S36.2,170,34,170z M34.5,176.2h-1v-1h1V176.2z M34.8,174.1
		c-0.2,0.1-0.3,0.3-0.3,0.4c0,0.1,0,0.2,0,0.2h-1v-0.3c0-0.4,0.4-0.7,0.7-0.8c0.2-0.1,0.3-0.2,0.3-0.4s-0.2-0.3-0.5-0.3
		c-0.1,0-0.3,0-0.3,0.1c-0.1,0.1-0.1,0.1-0.3,0.3l-0.1,0.2l-0.7-0.5l0.1-0.1c0.3-0.6,0.8-0.9,1.5-0.9s1.5,0.5,1.5,1.3
		C35.5,173.7,35.1,173.9,34.8,174.1z" />
</g>
<g id="individual-earth">
	<g>
		<path class="st0" d="M48,169c1.5,0,3-2,3-4c0-1.9-1.3-3-3-3s-3,1.1-3,3C45,167,46.5,169,48,169z" />
		<path class="st0" d="M51.3,169.8L50,169l-2,2.4l-2-2.4l-3.4,2c-0.5,0.3-0.6,0.7-0.6,1.3v1.7h7c0-0.3,0-0.7,0.1-1l0,0
			C49.4,171.6,50.2,170.5,51.3,169.8z" />
	</g>
	<path class="st0" d="M57.9,173.3c-0.3-1.9-2-3.3-3.9-3.3c-2.2,0-4,1.8-4,4c0,0.1,0,0.3,0,0.4l0,0c0.2,1.7,1.4,3.1,3.1,3.5l0,0
		c0.3,0.1,0.6,0.1,0.9,0.1c2.2,0,4-1.8,4-4C58,173.8,58,173.6,57.9,173.3z M53,176.8c-1.1-0.4-2-1.5-2-2.8c0-0.9,0.4-1.7,1-2.2v3.2
		l1,1V176.8z M56,175l-1,1h-1v-2h-1v-1h2l1,1V175z M55,172h-2v-0.8c0.3-0.1,0.6-0.2,1-0.2c1.7,0,3,1.3,3,3L55,172z" />
</g>
<g id="factory_1_">
	<path class="st0" d="M113,171v-2l-3,2v-2l-3,2l-1-7h-1l-1,7v5h12v-5v-2L113,171z M108,174h-1v-1h1V174z M111,174h-1v-1h1V174z
		 M114,174h-1v-1h1V174z" />
</g>
<g id="factory-earth">
	<path class="st0" d="M77.9,173.3c-0.3-1.9-2-3.3-3.9-3.3c-2.2,0-4,1.8-4,4c0,0.1,0,0.3,0,0.4l0,0c0.2,1.7,1.4,3.1,3.1,3.5l0,0
		c0.3,0.1,0.6,0.1,0.9,0.1c2.2,0,4-1.8,4-4C78,173.8,78,173.6,77.9,173.3z M73,176.8c-1.1-0.4-2-1.5-2-2.8c0-0.9,0.4-1.7,1-2.2v3.2
		l1,1V176.8z M76,175l-1,1h-1v-2h-1v-1h2l1,1V175z M75,172h-2v-0.8c0.3-0.1,0.6-0.2,1-0.2c1.7,0,3,1.3,3,3L75,172z" />
	<path class="st0" d="M74,169v-2l-3,2v-2l-3,2v-2l-3,2l-1-7h-1l-1,7v5h7C69,171.2,71.2,169,74,169z M66,172h-1v-1h1V172z M69,172h-1
		v-1h1V172z" />
</g>
<g id="webinar-mini_1_">
	<path class="st0" d="M118,15V2h-16v13h6l-0.7,2H106v1h1h6h1v-1h-1.3l-0.7-2H118z M104,11V4h12v7H104z M111,13c0,0.6-0.4,1-1,1
		s-1-0.4-1-1s0.4-1,1-1S111,12.4,111,13z" />
</g>
<g id="wait">

		<linearGradient id="SVGID_1_" gradientUnits="userSpaceOnUse" x1="108.0645" y1="-3284.4231" x2="112.7724" y2="-3283.7905" gradientTransform="matrix(1 0 0 -1 0 -3152.4697)">
		<stop  offset="0" style="stop-color:#201600" />
		<stop  offset="1" style="stop-color:#201600;stop-opacity:0" />
	</linearGradient>
	<path class="st1" d="M110,133c-1.7,0-3-1.3-3-3c0-0.4,0.1-0.7,0.2-1h-2.1c-0.1,0.3-0.1,0.7-0.1,1c0,2.8,2.2,5,5,5
		c2.4,0,4.4-1.7,4.9-4h-2.1C112.4,132.2,111.3,133,110,133z" />
	<path class="st0" d="M107.2,129L107.2,129c0.4-1.2,1.5-2,2.8-2c0.6,0,1.1,0.2,1.6,0.4L110,129h4v-4l-1,1c-0.8-0.6-1.9-1-3-1
		c-2.4,0-4.4,1.7-4.9,4l0,0c-0.1,0.3-0.1,0.7-0.1,1h2C107,129.6,107.1,129.3,107.2,129z" />
</g>
<g id="dot-menu">
	<circle class="st0" cx="30" cy="184" r="2" />
	<circle class="st0" cx="30" cy="196" r="2" />
	<circle class="st0" cx="30" cy="190" r="2" />
</g>
<g id="disclosure_1_">
	<path class="st0" d="M110,185c-2.8,0-5,2.2-5,5s2.2,5,5,5s5-2.2,5-5S112.8,185,110,185z M113,191h-2v2h-2v-2h-2v-2h2v-2h2v2h2V191z
		" />
</g>
<g id="watch">
	<circle class="st0" cx="10" cy="210" r="2" />
	<path class="st0" d="M10,204c-5,0-8,6-8,6s3,6,8,6s8-6,8-6S15,204,10,204z M10,214c-3.8,0-6-4-6-4s2.2-4,6-4c3.7,0,6,4,6,4
		S13.7,214,10,214z" />
</g>
<g id="write">
	<polygon class="st0" points="36,216 24,216 24,204 31,204 33,202 22,202 22,218 38,218 38,207 36,209 	" />
	<polygon class="st0" points="26,214 28,214 26,212 	" />
	<polygon class="st0" points="29,213 36,206 34,204 27,211 	" />
	<polygon class="st0" points="38,204 36,202 35,203 37,205 	" />
</g>
<g id="loupe_1_">
	<path id="loupe" class="st0" d="M93.4,211.4c0.4-0.7,0.6-1.5,0.6-2.4c0-2.8-2.2-5-5-5s-5,2.2-5,5s2.2,5,5,5c0.9,0,1.7-0.2,2.4-0.6
		L94,216h2v-2L93.4,211.4z M86,209c0-1.7,1.3-3,3-3s3,1.3,3,3s-1.3,3-3,3S86,210.7,86,209z" />
</g>
<g id="map_1_">
	<path id="map" class="st0" d="M115.4,209c0-2.8-2.2-5-5-5s-5,2.2-5,5c0,1.5,0.6,2.8,1.6,3.7l0,0l3.4,3.3l3.4-3.3l0,0
		C114.8,211.8,115.4,210.5,115.4,209z M110.4,207c1.1,0,2,0.9,2,2s-0.9,2-2,2s-2-0.9-2-2S109.3,207,110.4,207z" />
</g>
<g id="filing">
	<polygon class="st0" points="73,204 67,204 65,208 75,208 	" />
	<polygon class="st0" points="71,214 69,214 69,213 65,213 65,216 75,216 75,213 71,213 	" />
	<polygon class="st0" points="71,210 69,210 69,209 65,209 65,212 75,212 75,209 71,209 	" />
</g>
<g id="graph">
	<polygon class="st0" points="46,214 46,204 44,204 44,216 56,216 56,214 	" />
	<polygon class="st0" points="52,211 55,208 55,206 52,209 50,207 47,210 47,212 50,209 	" />
</g>
<g id="cross-big">
	<polygon class="st0" points="16.5,222 10,228.5 3.5,222 2,223.5 8.5,230 2,236.5 3.5,238 10,231.5 16.5,238 18,236.5 11.5,230
		18,223.5 	" />
</g>
<g id="down-big">
	<polygon class="st0" points="38,227 27,238 22,233 22,230 27,235 38,224 	" />
</g>
<g id="ok-big_1_">
	<polygon class="st0" points="58,228 50,235 42,228 42,225 50,232 58,225 	" />
</g>
<g id="burger">
	<rect x="62" y="223" class="st0" width="16" height="2" />
	<rect x="62" y="229" class="st0" width="16" height="2" />
	<rect x="62" y="235" class="st0" width="16" height="2" />
</g>
<g id="burger-mini">
	<rect x="85" y="225" class="st0" width="10" height="2" />
	<rect x="85" y="229" class="st0" width="10" height="2" />
	<rect x="85" y="233" class="st0" width="10" height="2" />
</g>
<g id="trash">
	<path class="st0" d="M92,286v-2h-4v2h-4v2h1l1,8h8l1-8h1v-2H92z M87.9,294l-0.8-6H89v6H87.9z M92.1,294H91v-6h1.9L92.1,294z" />
</g>
<g id="help">
	<path d="M110,223c-4.4,0-8,3.6-8,8s3.6,8,8,8s8-3.6,8-8S114.4,223,110,223z M110,237c-3.3,0-6-2.7-6-6s2.7-6,6-6s6,2.7,6,6
		S113.3,237,110,237z" />
	<rect x="109" y="234" width="2" height="2" />
	<path d="M110,226c-1.7,0-3,1.3-3,3h2c0-0.6,0.4-1,1-1s1,0.4,1,1c0,0.4-0.2,0.7-0.5,0.9c-0.2,0.1-0.3,0.2-0.5,0.4
		c-0.6,0.5-1,1.3-1,2.2v0.6h2v-0.6c0-0.4,0.2-0.6,0.5-0.9l0.5-0.4c0.6-0.5,1-1.3,1-2.2C113,227.3,111.6,226,110,226z" />
</g>
<g id="settings">
	<path class="st0" d="M70,27c-1.7,0-3,1.3-3,3s1.3,3,3,3s3-1.3,3-3S71.7,27,70,27z M70,31c-0.6,0-1-0.4-1-1s0.4-1,1-1s1,0.4,1,1
		S70.6,31,70,31z" />
	<path class="st0" d="M77.7,32c0.2-0.6,0.3-1.3,0.3-2s-0.1-1.4-0.3-2h-1c-0.1-0.5-0.3-0.9-0.5-1.3l0.7-0.7c-0.7-1.2-1.7-2.1-2.8-2.8
		l-0.7,0.7c-0.4-0.2-0.9-0.4-1.3-0.5l0,0v-1c-0.6-0.2-1.3-0.3-2-0.3s-1.3,0.1-2,0.3v1c-0.5,0.1-0.9,0.3-1.3,0.5l0,0L66,23.1
		c-1.2,0.7-2.1,1.7-2.8,2.8l0.7,0.7c-0.2,0.4-0.4,0.9-0.6,1.3h-1c-0.2,0.6-0.3,1.3-0.3,2s0.1,1.4,0.3,2h1c0.1,0.5,0.3,0.9,0.6,1.3
		l-0.7,0.7c0.3,0.6,0.7,1.1,1.2,1.6s1,0.9,1.6,1.2l0.7-0.7c0.4,0.2,0.9,0.4,1.3,0.5v1c0.6,0.2,1.3,0.3,2,0.3s1.4-0.1,2-0.3v-1
		c0.5-0.1,0.9-0.3,1.3-0.5l0.7,0.7c1.2-0.7,2.1-1.7,2.8-2.8l-0.7-0.7l0,0c0.2-0.4,0.4-0.9,0.5-1.3L77.7,32L77.7,32z M69,24.1
		L69,24.1L69,24.1L69,24.1z M69,35.9L69,35.9L69,35.9L69,35.9z M75.9,31L75.9,31h-1c-0.1,0.6-0.4,1.2-0.7,1.7l0.7,0.7
		c-0.4,0.5-0.9,1-1.4,1.4l0,0l0,0l-0.7-0.7c-0.5,0.3-1.1,0.6-1.7,0.7v1C70.7,36,70.3,36,70,36s-0.7,0-1-0.1v-1
		c-0.6-0.1-1.2-0.4-1.8-0.7l-0.7,0.7c-0.5-0.4-1-0.9-1.4-1.4l0,0l0,0l0.7-0.7c-0.4-0.5-0.6-1.1-0.7-1.8h-1l0,0
		C64,30.7,64,30.3,64,30s0-0.7,0.1-1l0,0h1c0.1-0.6,0.4-1.2,0.7-1.8l-0.7-0.7l0,0l0,0c0.4-0.5,0.9-1,1.4-1.4l0.7,0.7
		c0.5-0.3,1.1-0.6,1.8-0.7v-1c0.3-0.1,0.6-0.1,1-0.1c0.3,0,0.7,0,1,0.1v1c0.6,0.1,1.2,0.4,1.7,0.7l0.7-0.7l0,0l0,0
		c0.5,0.4,1,0.9,1.4,1.4l-0.7,0.7c0.3,0.5,0.6,1.1,0.7,1.7h1c0.1,0.3,0.1,0.7,0.1,1S76,30.7,75.9,31z" />
</g>
<g id="lock-mini_1_">
	<path id="lock-mini" class="st0" d="M113,250v-2c0-1.1-0.9-2-2-2h-2c-1.1,0-2,0.9-2,2v2h-2v6h10v-6H113z M110,254c-0.6,0-1-0.4-1-1
		s0.4-1,1-1s1,0.4,1,1S110.6,254,110,254z M108,250v-2c0-0.6,0.4-1,1-1h2c0.6,0,1,0.4,1,1v2H108z" />
</g>
<g id="phone-other">
	<polygon class="st0" points="94,246 94,244 92,244 92,246 90,246 90,248 92,248 92,250 94,250 94,248 96,248 96,246 	" />
	<path class="st0" d="M91.9,252.6c-0.4,0.4-1,0.4-1.4,0l-3.1-3.1c-0.4-0.4-0.4-1,0-1.4l1.1-1.1l-2.5-2.5l-1.1,1.1
		c-0.6,0.6-0.9,1.3-0.9,2.1v0.2c0,0.8,0.3,1.6,0.9,2.1l5,5c0.6,0.6,1.3,0.9,2.1,0.9h0.2c0.8,0,1.6-0.3,2.1-0.9l1.1-1.1l-2.5-2.5
		L91.9,252.6z" />
</g>
<g id="search_1_">
	<path id="search" class="st0" d="M78,256.6l-5.1-5.1c0.7-1,1.1-2.2,1.1-3.5c0-3.3-2.7-6-6-6s-6,2.7-6,6s2.7,6,6,6
		c1.3,0,2.5-0.4,3.5-1.1l5.1,5.1L78,256.6z M64,248c0-2.2,1.8-4,4-4s4,1.8,4,4s-1.8,4-4,4S64,250.2,64,248z" />
</g>
<g id="menu">
	<rect x="8" y="243" class="st0" width="10" height="2" />
	<rect x="8" y="255" class="st0" width="10" height="2" />
	<rect x="8" y="249" class="st0" width="10" height="2" />
	<circle class="st0" cx="4" cy="244" r="2" />
	<path class="st0" d="M4,248c-1.1,0-2,0.9-2,2s0.9,2,2,2s2-0.9,2-2S5.1,248,4,248z M4,251c-0.6,0-1-0.4-1-1s0.4-1,1-1s1,0.4,1,1
		S4.6,251,4,251z" />
	<circle class="st0" cx="4" cy="256" r="2" />
</g>
<g id="draganddrop">
	<polygon class="st0" points="30,256 33,253 27,253 	" />
	<polygon class="st0" points="30,244 27,247 33,247 	" />
	<rect x="28" y="249" class="st0" width="4" height="2" />
</g>
<g id="positive">
	<path class="st0" d="M2,262v16h16v-16H2z M16,276H4v-12h12V276z" />
	<polygon class="st0" points="9,274 11,274 11,269 13,269 10,266 7,269 9,269 	" />
</g>
<g id="negative">
	<path class="st0" d="M38,278v-16H22v16H38z M24,264h12v12H24V264z" />
	<polygon class="st0" points="31,266 29,266 29,271 27,271 30,274 33,271 31,271 	" />
</g>
<g id="information">
	<path class="st0" d="M42,262v16h16v-16H42z M56,276H44v-12h12V276z" />
	<rect x="46" y="266" class="st0" width="8" height="2" />
	<rect x="46" y="269" class="st0" width="8" height="2" />
	<rect x="46" y="272" class="st0" width="8" height="2" />
</g>
<g id="dot-more">
	<circle class="st0" cx="56" cy="250" r="2" />
	<circle class="st0" cx="44" cy="250" r="2" />
	<circle class="st0" cx="50" cy="250" r="2" />
</g>
<g id="start_1_">
	<polygon id="start" class="st0" points="112,266 112,269 104,269 104,271 112,271 112,274 116,270 	" />
</g>
<g id="finish">
	<polygon class="st0" points="86,266 88,266 88,264 84,264 84,276 86,276 86,270 88,270 88,268 86,268 	" />
	<rect x="90" y="264" class="st0" width="2" height="2" />
	<rect x="94" y="264" class="st0" width="2" height="2" />
	<rect x="90" y="268" class="st0" width="2" height="2" />
	<rect x="92" y="266" class="st0" width="2" height="2" />
	<rect x="88" y="266" class="st0" width="2" height="2" />
	<rect x="94" y="268" class="st0" width="2" height="2" />
</g>
<g id="size">
	<polygon class="st0" points="68.6,270 66,272.6 66,270 64,270 64,276 70,276 70,274 67.4,274 70,271.4 	" />
	<polygon class="st0" points="70,264 70,266 72.6,266 70,268.6 71.4,270 74,267.4 74,270 76,270 76,264 	" />
</g>
<g id="enter">
	<polygon class="st0" points="111,288 111,291 107,291 107,286 105,286 105,293 111,293 111,296 115,292 	" />
</g>
<g id="clip_1_">
	<path id="clip" class="st0" d="M16.5,283.5c-2-2-5.1-2-7.1,0L6,286.9c-1.2,1.2-1.2,3.1,0,4.2c1.2,1.2,3.1,1.2,4.2,0l3.7-3.7
		l-1.4-1.4l-3.7,3.7c-0.4,0.4-1,0.4-1.4,0s-0.4-1,0-1.4l2-2l1.4-1.4c1.2-1.2,3.1-1.2,4.2,0s1.2,3.1,0,4.2l-6,6
		c-1.2,1.2-3.1,1.2-4.2,0c-1.1-1.1-1.2-2.9-0.1-4.1l0,0l-1.4-1.4c-1.8,2-1.8,5,0.1,6.9c2,2,5.1,2,7.1,0l6-6
		C18.5,288.6,18.5,285.4,16.5,283.5z" />
</g>
<g id="shield-down">
	<polygon class="st0" points="49,286 49,290 47,290 50,293 53,290 51,290 51,286 	" />
	<path class="st0" d="M50,282c-5,0-8,1-8,1v7.8c0,1.4,0.7,2.7,1.9,3.4L50,298l6.1-3.8c1.2-0.7,1.9-2,1.9-3.4V283
		C58,283,55,282,50,282z M56,290.8c0,0.7-0.4,1.3-0.9,1.7l-5.1,3.2l-5.1-3.2c-0.6-0.4-0.9-1-0.9-1.7v-6.2c1.5-0.3,3.8-0.6,6-0.6
		s4.5,0.3,6,0.6V290.8z" />
</g>
<g id="shield-up_1_">
	<polygon class="st0" points="67,289 69,289 69,293 71,293 71,289 73,289 70,286 	" />
	<path class="st0" d="M70,282c-5,0-8,1-8,1v7.8c0,1.4,0.7,2.7,1.9,3.4L70,298l6.1-3.8c1.2-0.7,1.9-2,1.9-3.4V283
		C78,283,75,282,70,282z M76,290.8c0,0.7-0.4,1.3-0.9,1.7l-5.1,3.2l-5.1-3.2c-0.6-0.4-0.9-1-0.9-1.7v-6.2c1.5-0.3,3.8-0.6,6-0.6
		s4.5,0.3,6,0.6V290.8z" />
</g>
<g id="shield">
	<rect x="29" y="291" class="st0" width="2" height="2" />
	<polygon class="st0" points="31,284 31,282 29,282 29,284 29,289 31,289 	" />
	<path class="st0" d="M33,282.1v2c1.1,0.1,2.2,0.3,3,0.4v6.2c0,0.7-0.4,1.3-0.9,1.7l-5.1,3.2l-5.1-3.2c-0.6-0.4-0.9-1-0.9-1.7v-6.2
		c0.8-0.1,1.9-0.3,3-0.4v-2c-3.2,0.3-5,0.9-5,0.9v7.8c0,1.4,0.7,2.7,1.9,3.4L30,298l6.1-3.8c1.2-0.7,1.9-2,1.9-3.4V283
		C38,283,36.2,282.4,33,282.1z" />
</g>
<g id="user">
	<path class="st0" d="M10,312c3,0,4-3,4-6s-1.7-4-4-4s-4,1-4,4S7,312,10,312z M10,304c1.5,0,2,0.5,2,2c0,1.2-0.2,4-2,4s-2-2.8-2-4
		C8,304.5,8.4,304,10,304z" />
	<path class="st0" d="M17,313.6l-4-1.6l-3,2l-3-2l-4.1,1.6C2.3,313.9,2,314.4,2,315v3h16v-3C18,314.4,17.6,313.9,17,313.6z M4,316
		v-0.6l2.8-1.1l2.1,1.4l0.5,0.3L4,316L4,316z M16,316h-5.4l0.5-0.3l2.1-1.4l2.8,1.1V316z" />
</g>
</svg>